<svg width="147" height="52" viewBox="0 0 147 52" fill="none" xmlns="http://www.w3.org/2000/svg">
<path d="M-1.36677e-08 25.5735C-6.11922e-09 11.4478 11.4512 -0.00341796 25.5769 -0.00341796L135.731 -0.0034179C149.857 -0.00341789 161.308 11.4478 161.308 25.5735C161.308 39.6992 149.857 51.1504 135.731 51.1504L25.5769 51.1504C11.4512 51.1504 -2.12161e-08 39.6992 -1.36677e-08 25.5735Z" fill="#262626" fill-opacity="0.2"/>
<path d="M0.5 25.5735C0.5 11.7239 11.7273 0.496582 25.5769 0.496582L135.731 0.496582C149.58 0.496582 160.808 11.7239 160.808 25.5735C160.808 39.4231 149.58 50.6504 135.731 50.6504L25.5769 50.6504C11.7273 50.6504 0.5 39.4231 0.5 25.5735Z" stroke="white" stroke-opacity="0.1"/>
<path d="M33.1521 33.0735L27.5842 33.0735L27.5842 18.3313L33.1725 18.3313C35.6959 18.3313 37.4021 19.8025 37.4021 22.0092C37.4021 23.5416 36.2783 24.9719 34.8582 25.2273L34.8582 25.3091C36.8606 25.5645 38.1479 26.9743 38.1479 28.9359C38.1479 31.5308 36.2885 33.0735 33.1521 33.0735ZM29.4231 19.9557L29.4231 24.6859L32.1815 24.6859C34.3576 24.6859 35.5427 23.8175 35.5427 22.2237C35.5427 20.7628 34.5415 19.9557 32.7536 19.9557L29.4231 19.9557ZM29.4231 31.4491L32.8762 31.4491C35.0932 31.4491 36.2578 30.55 36.2578 28.8439C36.2578 27.1378 35.0523 26.2694 32.7025 26.2694L29.4231 26.2694L29.4231 31.4491ZM44.3594 33.2574C41.4171 33.2574 39.4351 31.1426 39.4351 27.761C39.4351 24.3692 41.4171 22.2646 44.3594 22.2646C47.2915 22.2646 49.2735 24.3692 49.2735 27.761C49.2735 31.1426 47.2915 33.2574 44.3594 33.2574ZM44.3594 31.6943C46.2392 31.6943 47.4652 30.264 47.4652 27.761C47.4652 25.258 46.2392 23.8277 44.3594 23.8277C42.4796 23.8277 41.2434 25.258 41.2434 27.761C41.2434 30.264 42.4796 31.6943 44.3594 31.6943ZM55.4748 33.2574C52.5325 33.2574 50.5505 31.1426 50.5505 27.761C50.5505 24.3692 52.5325 22.2646 55.4748 22.2646C58.4069 22.2646 60.3888 24.3692 60.3888 27.761C60.3888 31.1426 58.4069 33.2574 55.4748 33.2574ZM55.4748 31.6943C57.3546 31.6943 58.5806 30.264 58.5806 27.761C58.5806 25.258 57.3546 23.8277 55.4748 23.8277C53.595 23.8277 52.3588 25.258 52.3588 27.761C52.3588 30.264 53.595 31.6943 55.4748 31.6943ZM64.0565 27.1684L68.756 22.4485L70.9117 22.4485L66.3041 27.0356L71.0547 33.0735L68.991 33.0735L65.0475 28.1288L64.0565 29.0687L64.0565 33.0735L62.2789 33.0735L62.2789 18.3313L64.0565 18.3313L64.0565 27.1684ZM80.137 31.7454C81.8125 31.7454 83.0998 30.5705 83.0998 29.038L83.0998 28.1696L80.2596 28.3433C78.8294 28.4353 78.012 29.0687 78.012 30.0699C78.012 31.0813 78.86 31.7454 80.137 31.7454ZM79.7386 33.2574C77.6238 33.2574 76.2038 31.9803 76.2038 30.0699C76.2038 28.2514 77.6034 27.1071 80.0553 26.9641L83.0998 26.7904L83.0998 25.9016C83.0998 24.6041 82.2416 23.8277 80.7705 23.8277C79.4015 23.8277 78.5433 24.4713 78.3185 25.5134L76.6022 25.5134C76.7248 23.6744 78.2981 22.2646 80.8113 22.2646C83.3041 22.2646 84.8774 23.6131 84.8774 25.7279L84.8774 33.0735L83.1917 33.0735L83.1917 31.2448L83.1509 31.2448C82.5175 32.4605 81.1689 33.2574 79.7386 33.2574ZM91.9982 33.0735L91.9982 23.9094L90.5169 23.9094L90.5169 22.4485L91.9982 22.4485L91.9982 21.2634C91.9982 19.2201 92.9483 18.2496 94.9099 18.2496C95.3083 18.2496 95.7374 18.2904 95.9928 18.3313L95.9928 19.7718C95.7783 19.7412 95.482 19.7105 95.1857 19.7105C94.2254 19.7105 93.7657 20.2213 93.7657 21.2736L93.7657 22.4485L95.9417 22.4485L95.9417 23.9094L93.7759 23.9094L93.7759 33.0735L91.9982 33.0735ZM97.8726 33.0735L97.8726 18.3313L99.6503 18.3313L99.6503 33.0735L97.8726 33.0735ZM102.143 33.0735L102.143 22.4485L103.921 22.4485L103.921 33.0735L102.143 33.0735ZM103.032 20.5585C102.419 20.5585 101.918 20.0579 101.918 19.4449C101.918 18.8217 102.419 18.3313 103.032 18.3313C103.655 18.3313 104.145 18.8217 104.145 19.4449C104.145 20.0579 103.655 20.5585 103.032 20.5585ZM110.643 31.5921C112.492 31.5921 113.728 30.0597 113.728 27.7201C113.728 25.3806 112.492 23.8277 110.643 23.8277C108.814 23.8277 107.619 25.3397 107.619 27.7201C107.619 30.1005 108.814 31.5921 110.643 31.5921ZM110.704 37.0783C108.365 37.0783 106.516 35.7604 106.219 33.9521L108.048 33.9521C108.395 34.9226 109.448 35.5663 110.776 35.5663C112.615 35.5663 113.728 34.5038 113.728 32.9202L113.728 31.2448L113.688 31.2448C113.034 32.3992 111.777 33.1552 110.285 33.1552C107.578 33.1552 105.801 31.02 105.801 27.7201C105.801 24.3896 107.578 22.2646 110.326 22.2646C111.828 22.2646 113.075 23.0002 113.779 24.2363L113.81 24.2363L113.81 22.4485L115.506 22.4485L115.506 32.8589C115.506 35.3926 113.636 37.0783 110.704 37.0783ZM117.917 33.0735L117.917 18.3313L119.695 18.3313L119.695 24.1444L119.736 24.1444C120.328 22.9593 121.493 22.2646 123.107 22.2646C125.436 22.2646 126.846 23.8379 126.846 26.2081L126.846 33.0735L125.069 33.0735L125.069 26.535C125.069 24.8493 124.221 23.8379 122.555 23.8379C120.788 23.8379 119.695 25.0434 119.695 26.8824L119.695 33.0735L117.917 33.0735ZM129.676 19.8842L131.454 19.8842L131.454 22.4485L133.517 22.4485L133.517 23.9094L131.454 23.9094L131.454 30.2231C131.454 31.1937 131.862 31.633 132.772 31.633C132.976 31.633 133.385 31.6023 133.507 31.5819L133.507 33.0735C133.293 33.1246 132.802 33.1552 132.383 33.1552C130.432 33.1552 129.676 32.3583 129.676 30.3151L129.676 23.9094L128.093 23.9094L128.093 22.4485L129.676 22.4485L129.676 19.8842Z" fill="white"/>
</svg>
