<svg width="159" height="52" viewBox="0 0 159 52" fill="none" xmlns="http://www.w3.org/2000/svg">
<path d="M-1.36677e-08 25.5735C-6.11922e-09 11.4478 11.4512 -0.00341796 25.5769 -0.00341796L132.731 -0.0034179C146.857 -0.00341789 158.308 11.4478 158.308 25.5735C158.308 39.6992 146.857 51.1504 132.731 51.1504L25.5769 51.1504C11.4512 51.1504 -2.12161e-08 39.6992 -1.36677e-08 25.5735Z" fill="#646464" fill-opacity="0.3"/>
<path d="M0.5 25.5735C0.5 11.7239 11.7273 0.496582 25.5769 0.496582L132.731 0.496582C146.58 0.496582 157.808 11.7239 157.808 25.5735C157.808 39.4231 146.58 50.6504 132.731 50.6504L25.5769 50.6504C11.7273 50.6504 0.5 39.4231 0.5 25.5735Z" stroke="white" stroke-opacity="0.1"/>
<path d="M33.6526 33.3187C29.5865 33.3187 27.012 30.3662 27.012 25.6973C27.012 21.0693 29.6171 18.0861 33.6526 18.0861C36.8605 18.0861 39.3022 20.0374 39.7722 22.9797L37.9128 22.9797C37.4429 21.0488 35.7572 19.782 33.6526 19.782C30.7716 19.782 28.902 22.1113 28.902 25.6973C28.902 29.3139 30.7512 31.6228 33.6628 31.6228C35.8287 31.6228 37.3816 30.5807 37.9128 28.7826L39.7722 28.7826C39.0979 31.6943 36.9116 33.3187 33.6526 33.3187ZM45.1766 31.7454C46.8521 31.7454 48.1394 30.5705 48.1394 29.038L48.1394 28.1696L45.2992 28.3433C43.869 28.4353 43.0516 29.0687 43.0516 30.0699C43.0516 31.0813 43.8996 31.7454 45.1766 31.7454ZM44.7782 33.2574C42.6634 33.2574 41.2434 31.9803 41.2434 30.0699C41.2434 28.2514 42.643 27.1071 45.0949 26.9641L48.1394 26.7904L48.1394 25.9016C48.1394 24.6041 47.2812 23.8277 45.8101 23.8277C44.4411 23.8277 43.5829 24.4713 43.3581 25.5134L41.6418 25.5134C41.7644 23.6744 43.3377 22.2646 45.8509 22.2646C48.3437 22.2646 49.917 23.6131 49.917 25.7279L49.917 33.0735L48.2313 33.0735L48.2313 31.2448L48.1905 31.2448C47.5571 32.4605 46.2085 33.2574 44.7782 33.2574ZM52.747 33.0735L52.747 23.9094L51.2656 23.9094L51.2656 22.4485L52.747 22.4485L52.747 21.2634C52.747 19.2201 53.6971 18.2496 55.6586 18.2496C56.0571 18.2496 56.4861 18.2904 56.7415 18.3313L56.7415 19.7718C56.527 19.7412 56.2307 19.7105 55.9345 19.7105C54.9741 19.7105 54.5144 20.2213 54.5144 21.2736L54.5144 22.4485L56.6905 22.4485L56.6905 23.9094L54.5246 23.9094L54.5246 33.0735L52.747 33.0735ZM62.2788 23.8073C60.6135 23.8073 59.4489 25.0843 59.3365 26.8517L65.1087 26.8517C65.0679 25.0741 63.9543 23.8073 62.2788 23.8073ZM65.0679 30.029L66.8149 30.029C66.5084 31.8884 64.7103 33.2574 62.3912 33.2574C59.3467 33.2574 57.4976 31.1426 57.4976 27.8019C57.4976 24.502 59.3774 22.2646 62.3095 22.2646C65.1802 22.2646 66.9477 24.3487 66.9477 27.5669L66.9477 28.2412L59.3263 28.2412L59.3263 28.3433C59.3263 30.3764 60.5216 31.7147 62.4321 31.7147C63.7806 31.7147 64.7716 31.0302 65.0679 30.029ZM63.0144 20.916L61.6352 20.916L63.4537 17.8511L65.405 17.8511L63.0144 20.916ZM73.0366 33.0735L73.0366 22.4485L74.7121 22.4485L74.7121 24.1444L74.753 24.1444C75.3455 23.0002 76.4795 22.2646 78.1244 22.2646C80.4537 22.2646 81.8022 23.7664 81.8022 26.1775L81.8022 33.0735L80.0246 33.0735L80.0246 26.4942C80.0246 24.7778 79.2175 23.8379 77.5829 23.8379C75.9074 23.8379 74.8143 25.023 74.8143 26.8211L74.8143 33.0735L73.0366 33.0735ZM88.3305 23.8073C86.6652 23.8073 85.5006 25.0843 85.3882 26.8517L91.1604 26.8517C91.1196 25.0741 90.006 23.8073 88.3305 23.8073ZM91.1196 30.029L92.8665 30.029C92.5601 31.8884 90.762 33.2574 88.4429 33.2574C85.3984 33.2574 83.5492 31.1426 83.5492 27.8019C83.5492 24.502 85.429 22.2646 88.3611 22.2646C91.2319 22.2646 92.9994 24.3487 92.9994 27.5669L92.9994 28.2412L85.378 28.2412L85.378 28.3433C85.378 30.3764 86.5733 31.7147 88.4837 31.7147C89.8323 31.7147 90.8233 31.0302 91.1196 30.029ZM98.3016 31.7454C99.9771 31.7454 101.264 30.5705 101.264 29.038L101.264 28.1696L98.4242 28.3433C96.994 28.4353 96.1766 29.0687 96.1766 30.0699C96.1766 31.0813 97.0246 31.7454 98.3016 31.7454ZM97.9032 33.2574C95.7884 33.2574 94.3684 31.9803 94.3684 30.0699C94.3684 28.2514 95.768 27.1071 98.2199 26.9641L101.264 26.7904L101.264 25.9016C101.264 24.6041 100.406 23.8277 98.9351 23.8277C97.5661 23.8277 96.7079 24.4713 96.4831 25.5134L94.7668 25.5134C94.8894 23.6744 96.4627 22.2646 98.9759 22.2646C101.469 22.2646 103.042 23.6132 103.042 25.7279L103.042 33.0735L101.356 33.0735L101.356 31.2448L101.315 31.2448C100.682 32.4605 99.3335 33.2574 97.9032 33.2574ZM105.3 33.0735L105.3 22.4485L106.975 22.4485L106.975 24.1853L107.016 24.1853C107.364 23.0104 108.344 22.2646 109.591 22.2646C109.897 22.2646 110.163 22.3157 110.306 22.3361L110.306 24.0627C110.163 24.0116 109.785 23.9605 109.356 23.9605C107.977 23.9605 107.077 24.9515 107.077 26.4533L107.077 33.0735L105.3 33.0735ZM117.038 33.2574C115.486 33.2574 114.27 32.5014 113.585 31.2754L113.544 31.2754L113.544 33.0735L111.849 33.0735L111.849 18.3313L113.626 18.3313L113.626 24.2261L113.667 24.2261C114.331 23.0104 115.567 22.2646 117.069 22.2646C119.746 22.2646 121.554 24.4305 121.554 27.761C121.554 31.1017 119.756 33.2574 117.038 33.2574ZM116.691 23.8277C114.893 23.8277 113.616 25.401 113.616 27.761C113.616 30.1312 114.893 31.6943 116.691 31.6943C118.571 31.6943 119.736 30.1925 119.736 27.761C119.736 25.3499 118.571 23.8277 116.691 23.8277ZM123.945 37.0476C123.73 37.0476 123.373 37.0272 123.178 36.9863L123.178 35.4948C123.373 35.5356 123.648 35.5458 123.873 35.5458C124.864 35.5458 125.416 35.0657 125.824 33.8295L126.07 33.0837L122.147 22.4485L124.047 22.4485L126.989 31.2958L127.02 31.2958L129.962 22.4485L131.832 22.4485L127.653 33.8193C126.744 36.3019 125.865 37.0476 123.945 37.0476Z" fill="white"/>
</svg>
