<svg width="136" height="94" viewBox="0 0 136 94" fill="none" xmlns="http://www.w3.org/2000/svg">
<path d="M-147 24.9409C-147 11.1645 -135.832 -0.00341797 -122.056 -0.00341797H110.238C124.015 -0.00341797 135.183 11.1645 135.183 24.9409V68.5935C135.183 82.3699 124.015 93.5378 110.238 93.5378H-122.056C-135.832 93.5378 -147 82.3699 -147 68.5935V24.9409Z" fill="#262626" fill-opacity="0.3"/>
<path d="M-146.5 24.9409C-146.5 11.4407 -135.556 0.496582 -122.056 0.496582H110.238C123.739 0.496582 134.683 11.4407 134.683 24.9409V68.5935C134.683 82.0937 123.739 93.0378 110.238 93.0378H-122.056C-135.556 93.0378 -146.5 82.0937 -146.5 68.5935V24.9409Z" stroke="white" stroke-opacity="0.1"/>
<path d="M-124.395 55.1406V61.876H-120.193C-117.939 61.876 -116.66 60.6581 -116.66 58.5022C-116.66 56.3951 -118.025 55.1406 -120.29 55.1406H-124.395ZM-124.395 63.8126V70.7673H-126.587V53.1918H-119.998C-116.612 53.1918 -114.395 55.2624 -114.395 58.4291C-114.395 60.8773 -115.723 62.7774 -117.927 63.4716L-113.859 70.7673H-116.429L-120.193 63.8126H-124.395ZM-106.88 59.7202C-108.865 59.7202 -110.254 61.2427 -110.388 63.3498H-103.506C-103.555 61.2305 -104.883 59.7202 -106.88 59.7202ZM-103.555 67.1377H-101.472C-101.838 69.3545 -103.981 70.9866 -106.746 70.9866C-110.376 70.9866 -112.58 68.4653 -112.58 64.4825C-112.58 60.5484 -110.339 57.8811 -106.844 57.8811C-103.421 57.8811 -101.314 60.3657 -101.314 64.2024V65.0063H-110.4V65.1281C-110.4 67.5519 -108.975 69.1474 -106.697 69.1474C-105.09 69.1474 -103.908 68.3314 -103.555 67.1377ZM-99.1702 70.7673V58.1003H-97.1727V60.1221H-97.124C-96.4176 58.758 -95.0656 57.8811 -93.1047 57.8811C-90.3276 57.8811 -88.7199 59.6715 -88.7199 62.5459V70.7673H-90.8392V62.9235C-90.8392 60.8773 -91.8014 59.7568 -93.7502 59.7568C-95.7477 59.7568 -97.0509 61.1696 -97.0509 63.3133V70.7673H-99.1702ZM-80.937 59.7202C-82.9223 59.7202 -84.3108 61.2427 -84.4448 63.3498H-77.5632C-77.6119 61.2305 -78.9395 59.7202 -80.937 59.7202ZM-77.6119 67.1377H-75.5291C-75.8945 69.3545 -78.0382 70.9866 -80.803 70.9866C-84.4326 70.9866 -86.6372 68.4653 -86.6372 64.4825C-86.6372 60.5484 -84.3961 57.8811 -80.9004 57.8811C-77.4779 57.8811 -75.3708 60.3657 -75.3708 64.2024V65.0063H-84.457V65.1281C-84.457 67.5519 -83.0319 69.1474 -80.7543 69.1474C-79.1465 69.1474 -77.9651 68.3314 -77.6119 67.1377ZM-57.1132 58.1003L-60.6454 70.7673H-62.8012L-65.6635 60.9626H-65.7122L-68.5623 70.7673H-70.7181L-74.2624 58.1003H-72.1553L-69.6219 68.4044H-69.5732L-66.7109 58.1003H-64.6647L-61.7903 68.4044H-61.7415L-59.2081 58.1003H-57.1132ZM-42.6923 71.0597C-47.5398 71.0597 -50.6092 67.5397 -50.6092 61.9735C-50.6092 56.456 -47.5033 52.8995 -42.6923 52.8995C-38.8678 52.8995 -35.9568 55.2258 -35.3965 58.7336H-37.6133C-38.1735 56.4317 -40.1832 54.9214 -42.6923 54.9214C-46.127 54.9214 -48.3559 57.6984 -48.3559 61.9735C-48.3559 66.2851 -46.1513 69.0378 -42.6801 69.0378C-40.098 69.0378 -38.2466 67.7955 -37.6133 65.6518H-35.3965C-36.2004 69.1231 -38.8069 71.0597 -42.6923 71.0597ZM-28.9534 69.184C-26.9559 69.184 -25.4212 67.7833 -25.4212 65.9563V64.921L-28.8072 65.1281C-30.5124 65.2377 -31.4868 65.9928 -31.4868 67.1865C-31.4868 68.3923 -30.4759 69.184 -28.9534 69.184ZM-29.4284 70.9866C-31.9496 70.9866 -33.6426 69.4641 -33.6426 67.1865C-33.6426 65.0184 -31.974 63.6543 -29.0508 63.4838L-25.4212 63.2767V62.2171C-25.4212 60.6702 -26.4443 59.7446 -28.1982 59.7446C-29.8303 59.7446 -30.8534 60.5119 -31.1214 61.7542H-33.1676C-33.0215 59.5619 -31.1458 57.8811 -28.1495 57.8811C-25.1776 57.8811 -23.3019 59.4888 -23.3019 62.01V70.7673H-25.3116V68.5871H-25.3603C-26.1155 70.0365 -27.7232 70.9866 -29.4284 70.9866ZM-20.6102 70.7673V58.1003H-18.6127V60.1709H-18.564C-18.1499 58.7702 -16.9806 57.8811 -15.4947 57.8811C-15.1293 57.8811 -14.8126 57.942 -14.6421 57.9663V60.0247C-14.8126 59.9638 -15.2632 59.9029 -15.7748 59.9029C-17.4191 59.9029 -18.4909 61.0844 -18.4909 62.8748V70.7673H-20.6102ZM-7.68738 70.7673V58.1003H-5.56808V70.7673H-7.68738ZM-6.62773 55.847C-7.35852 55.847 -7.95533 55.2502 -7.95533 54.5194C-7.95533 53.7764 -7.35852 53.1918 -6.62773 53.1918C-5.88476 53.1918 -5.30013 53.7764 -5.30013 54.5194C-5.30013 55.2502 -5.88476 55.847 -6.62773 55.847ZM-2.70582 70.7673V58.1003H-0.70832V60.1221H-0.659601C0.0468307 58.758 1.39879 57.8811 3.35975 57.8811C6.13676 57.8811 7.7445 59.6715 7.7445 62.5459V70.7673H5.6252V62.9235C5.6252 60.8773 4.66299 59.7568 2.71422 59.7568C0.716722 59.7568 -0.586521 61.1696 -0.586521 63.3133V70.7673H-2.70582ZM10.2292 61.5959C10.2292 59.4279 12.1414 57.8811 14.8819 57.8811C17.6589 57.8811 19.5102 59.5132 19.5955 61.7542H17.5736C17.4153 60.4266 16.4409 59.6106 14.8819 59.6106C13.335 59.6106 12.3119 60.3779 12.3119 61.4863C12.3119 62.3632 12.9575 62.9601 14.3703 63.3011L16.38 63.7883C18.9378 64.4095 19.8634 65.4082 19.8634 67.223C19.8634 69.4276 17.7807 70.9866 14.955 70.9866C11.9831 70.9866 10.1317 69.4884 9.88815 67.1134H12.0074C12.2632 68.5628 13.2376 69.257 14.955 69.257C16.6723 69.257 17.732 68.5262 17.732 67.3813C17.732 66.4678 17.2326 65.9441 15.7832 65.5909L13.7735 65.1037C11.3863 64.5313 10.2292 63.4229 10.2292 61.5959ZM32.4696 58.1003V70.7673H30.4599V68.7089H30.4112C29.656 70.1705 28.3406 70.9866 26.3918 70.9866C23.627 70.9866 22.0071 69.1961 22.0071 66.3217V58.1003H24.1264V65.9441C24.1264 68.0025 25.0886 69.1109 27.0495 69.1109C29.1079 69.1109 30.3503 67.698 30.3503 65.5422V58.1003H32.4696ZM35.2222 70.7673V58.1003H37.2197V60.1709H37.2685C37.6826 58.7702 38.8518 57.8811 40.3378 57.8811C40.7032 57.8811 41.0198 57.942 41.1904 57.9663V60.0247C41.0198 59.9638 40.5692 59.9029 40.0576 59.9029C38.4134 59.9029 37.3415 61.0844 37.3415 62.8748V70.7673H35.2222ZM46.854 69.184C48.8515 69.184 50.3861 67.7833 50.3861 65.9563V64.921L47.0001 65.1281C45.295 65.2377 44.3206 65.9928 44.3206 67.1865C44.3206 68.3923 45.3315 69.184 46.854 69.184ZM46.379 70.9866C43.8577 70.9866 42.1647 69.4641 42.1647 67.1865C42.1647 65.0184 43.8334 63.6543 46.7565 63.4838L50.3861 63.2767V62.2171C50.3861 60.6702 49.363 59.7446 47.6091 59.7446C45.977 59.7446 44.9539 60.5119 44.686 61.7542H42.6398C42.7859 59.5619 44.6616 57.8811 47.6579 57.8811C50.6297 57.8811 52.5054 59.4888 52.5054 62.01V70.7673H50.4958V68.5871H50.447C49.6919 70.0365 48.0841 70.9866 46.379 70.9866ZM55.1972 70.7673V58.1003H57.1947V60.1221H57.2434C57.9498 58.758 59.3018 57.8811 61.2627 57.8811C64.0398 57.8811 65.6475 59.6715 65.6475 62.5459V70.7673H63.5282V62.9235C63.5282 60.8773 62.566 59.7568 60.6172 59.7568C58.6197 59.7568 57.3165 61.1696 57.3165 63.3133V70.7673H55.1972ZM78.8748 62.2536H76.8042C76.4997 60.8773 75.4279 59.7446 73.5644 59.7446C71.372 59.7446 69.8861 61.5594 69.8861 64.4338C69.8861 67.3813 71.3964 69.1231 73.5888 69.1231C75.3183 69.1231 76.451 68.2096 76.8164 66.6871H78.8992C78.5703 69.2083 76.451 70.9866 73.5766 70.9866C70.0688 70.9866 67.7302 68.5141 67.7302 64.4338C67.7302 60.4388 70.0566 57.8811 73.5522 57.8811C76.719 57.8811 78.6069 59.976 78.8748 62.2536ZM85.9269 59.7202C83.9416 59.7202 82.5531 61.2427 82.4191 63.3498H89.3008C89.252 61.2305 87.9244 59.7202 85.9269 59.7202ZM89.252 67.1377H91.3348C90.9694 69.3545 88.8257 70.9866 86.0609 70.9866C82.4313 70.9866 80.2268 68.4653 80.2268 64.4825C80.2268 60.5484 82.4679 57.8811 85.9635 57.8811C89.386 57.8811 91.4931 60.3657 91.4931 64.2024V65.0063H82.407V65.1281C82.407 67.5519 83.832 69.1474 86.1096 69.1474C87.7174 69.1474 88.8988 68.3314 89.252 67.1377Z" fill="white"/>
</svg>
