<svg width="283" height="94" viewBox="0 0 283 94" fill="none" xmlns="http://www.w3.org/2000/svg">
<rect y="-0.00341797" width="282.183" height="93.5412" rx="24.9443" fill="#262626" fill-opacity="0.3"/>
<rect x="0.5" y="0.496582" width="281.183" height="92.5412" rx="24.4443" stroke="white" stroke-opacity="0.1"/>
<path d="M21.6127 36.7051H19.9867V23.5234H21.5853L28.8019 33.8733H28.8841V23.5234H30.5101V36.7051H28.9115L21.6949 26.3918H21.6127V36.7051ZM36.6305 28.4197C35.1415 28.4197 34.1001 29.5616 33.9996 31.1419H39.1608C39.1243 29.5525 38.1286 28.4197 36.6305 28.4197ZM39.1243 33.9829H40.6864C40.4123 35.6454 38.8046 36.8695 36.731 36.8695C34.0088 36.8695 32.3553 34.9786 32.3553 31.9915C32.3553 29.0409 34.0362 27.0404 36.6579 27.0404C39.2248 27.0404 40.8051 28.9039 40.8051 31.7814V32.3843H33.9905V32.4756C33.9905 34.2935 35.0593 35.4901 36.7675 35.4901C37.9733 35.4901 38.8594 34.8781 39.1243 33.9829ZM45.5918 33.0877H45.5553L43.2624 36.7051H41.4994L44.7331 31.9549L41.5542 27.2048H43.3263L45.6101 30.7674H45.6466L47.9029 27.2048H49.6751L46.4687 31.891L49.6294 36.7051H47.8664L45.5918 33.0877ZM51.5295 24.9119H53.1189V27.2048H54.9642V28.5111H53.1189V34.1564C53.1189 35.0243 53.4843 35.4171 54.2973 35.4171C54.48 35.4171 54.8454 35.3897 54.9551 35.3714V36.7051C54.7632 36.7508 54.3247 36.7782 53.9502 36.7782C52.2055 36.7782 51.5295 36.0656 51.5295 34.2387V28.5111H50.1136V27.2048H51.5295V24.9119ZM65.7251 36.7051H64.0808V25.0033H59.9244V23.5234H69.8815V25.0033H65.7251V36.7051ZM72.8412 36.8695C70.2103 36.8695 68.4381 34.9786 68.4381 31.9549C68.4381 28.9222 70.2103 27.0404 72.8412 27.0404C75.4629 27.0404 77.235 28.9222 77.235 31.9549C77.235 34.9786 75.4629 36.8695 72.8412 36.8695ZM72.8412 35.4719C74.522 35.4719 75.6182 34.193 75.6182 31.9549C75.6182 29.7169 74.522 28.438 72.8412 28.438C71.1603 28.438 70.055 29.7169 70.055 31.9549C70.055 34.193 71.1603 35.4719 72.8412 35.4719ZM84.817 32.1011H78.8245V30.6212H84.817V32.1011ZM87.1098 23.5234H91.5403C95.45 23.5234 97.7611 25.9625 97.7611 30.1097C97.7611 34.2661 95.4591 36.7051 91.5403 36.7051H87.1098V23.5234ZM88.7541 25.0033V35.2252H91.4306C94.4178 35.2252 96.0803 33.3982 96.0803 30.128C96.0803 26.8303 94.4269 25.0033 91.4306 25.0033H88.7541ZM103.498 36.8695C100.867 36.8695 99.0948 34.9786 99.0948 31.9549C99.0948 28.9222 100.867 27.0404 103.498 27.0404C106.12 27.0404 107.892 28.9222 107.892 31.9549C107.892 34.9786 106.12 36.8695 103.498 36.8695ZM103.498 35.4719C105.179 35.4719 106.275 34.193 106.275 31.9549C106.275 29.7169 105.179 28.438 103.498 28.438C101.817 28.438 100.712 29.7169 100.712 31.9549C100.712 34.193 101.817 35.4719 103.498 35.4719Z" fill="white" fill-opacity="0.6"/>
<path d="M22.6054 55.1406V61.876H26.8074C29.0607 61.876 30.3396 60.6581 30.3396 58.5022C30.3396 56.3951 28.9754 55.1406 26.71 55.1406H22.6054ZM22.6054 63.8126V70.7673H20.413V53.1918H27.0023C30.3883 53.1918 32.605 55.2624 32.605 58.4291C32.605 60.8773 31.2774 62.7774 29.0729 63.4716L33.1409 70.7673H30.571L26.8074 63.8126H22.6054ZM40.12 59.7202C38.1347 59.7202 36.7462 61.2427 36.6122 63.3498H43.4938C43.4451 61.2305 42.1175 59.7202 40.12 59.7202ZM43.4451 67.1377H45.5279C45.1625 69.3545 43.0188 70.9866 40.254 70.9866C36.6244 70.9866 34.4198 68.4653 34.4198 64.4825C34.4198 60.5484 36.6609 57.8811 40.1565 57.8811C43.5791 57.8811 45.6862 60.3657 45.6862 64.2024V65.0063H36.6V65.1281C36.6 67.5519 38.0251 69.1474 40.3027 69.1474C41.9104 69.1474 43.0919 68.3314 43.4451 67.1377ZM47.8298 70.7673V58.1003H49.8273V60.1221H49.8761C50.5825 58.758 51.9345 57.8811 53.8954 57.8811C56.6724 57.8811 58.2802 59.6715 58.2802 62.5459V70.7673H56.1609V62.9235C56.1609 60.8773 55.1987 59.7568 53.2499 59.7568C51.2524 59.7568 49.9491 61.1696 49.9491 63.3133V70.7673H47.8298ZM66.0631 59.7202C64.0778 59.7202 62.6893 61.2427 62.5553 63.3498H69.4369C69.3882 61.2305 68.0606 59.7202 66.0631 59.7202ZM69.3882 67.1377H71.4709C71.1055 69.3545 68.9619 70.9866 66.1971 70.9866C62.5675 70.9866 60.3629 68.4653 60.3629 64.4825C60.3629 60.5484 62.604 57.8811 66.0996 57.8811C69.5222 57.8811 71.6293 60.3657 71.6293 64.2024V65.0063H62.5431V65.1281C62.5431 67.5519 63.9681 69.1474 66.2458 69.1474C67.8535 69.1474 69.035 68.3314 69.3882 67.1377ZM89.8869 58.1003L86.3547 70.7673H84.1989L81.3366 60.9626H81.2879L78.4378 70.7673H76.282L72.7376 58.1003H74.8447L77.3782 68.4044H77.4269L80.2891 58.1003H82.3354L85.2098 68.4044H85.2585L87.7919 58.1003H89.8869ZM104.308 71.0597C99.4602 71.0597 96.3909 67.5397 96.3909 61.9735C96.3909 56.456 99.4968 52.8995 104.308 52.8995C108.132 52.8995 111.043 55.2258 111.604 58.7336H109.387C108.827 56.4317 106.817 54.9214 104.308 54.9214C100.873 54.9214 98.6442 57.6984 98.6442 61.9735C98.6442 66.2851 100.849 69.0378 104.32 69.0378C106.902 69.0378 108.753 67.7955 109.387 65.6518H111.604C110.8 69.1231 108.193 71.0597 104.308 71.0597ZM118.047 69.184C120.044 69.184 121.579 67.7833 121.579 65.9563V64.921L118.193 65.1281C116.488 65.2377 115.513 65.9928 115.513 67.1865C115.513 68.3923 116.524 69.184 118.047 69.184ZM117.572 70.9866C115.05 70.9866 113.357 69.4641 113.357 67.1865C113.357 65.0184 115.026 63.6543 117.949 63.4838L121.579 63.2767V62.2171C121.579 60.6702 120.556 59.7446 118.802 59.7446C117.17 59.7446 116.147 60.5119 115.879 61.7542H113.832C113.979 59.5619 115.854 57.8811 118.851 57.8811C121.822 57.8811 123.698 59.4888 123.698 62.01V70.7673H121.688V68.5871H121.64C120.885 70.0365 119.277 70.9866 117.572 70.9866ZM126.39 70.7673V58.1003H128.387V60.1709H128.436C128.85 58.7702 130.019 57.8811 131.505 57.8811C131.871 57.8811 132.187 57.942 132.358 57.9663V60.0247C132.187 59.9638 131.737 59.9029 131.225 59.9029C129.581 59.9029 128.509 61.0844 128.509 62.8748V70.7673H126.39ZM139.313 70.7673V58.1003H141.432V70.7673H139.313ZM140.372 55.847C139.642 55.847 139.045 55.2502 139.045 54.5194C139.045 53.7764 139.642 53.1918 140.372 53.1918C141.115 53.1918 141.7 53.7764 141.7 54.5194C141.7 55.2502 141.115 55.847 140.372 55.847ZM144.294 70.7673V58.1003H146.292V60.1221H146.34C147.047 58.758 148.399 57.8811 150.36 57.8811C153.137 57.8811 154.745 59.6715 154.745 62.5459V70.7673H152.625V62.9235C152.625 60.8773 151.663 59.7568 149.714 59.7568C147.717 59.7568 146.414 61.1696 146.414 63.3133V70.7673H144.294ZM157.229 61.5959C157.229 59.4279 159.141 57.8811 161.882 57.8811C164.659 57.8811 166.51 59.5132 166.596 61.7542H164.574C164.415 60.4266 163.441 59.6106 161.882 59.6106C160.335 59.6106 159.312 60.3779 159.312 61.4863C159.312 62.3632 159.958 62.9601 161.37 63.3011L163.38 63.7883C165.938 64.4095 166.864 65.4082 166.864 67.223C166.864 69.4276 164.781 70.9866 161.955 70.9866C158.983 70.9866 157.132 69.4884 156.888 67.1134H159.008C159.263 68.5628 160.238 69.257 161.955 69.257C163.672 69.257 164.732 68.5262 164.732 67.3813C164.732 66.4678 164.233 65.9441 162.783 65.5909L160.774 65.1037C158.386 64.5313 157.229 63.4229 157.229 61.5959ZM179.47 58.1003V70.7673H177.46V68.7089H177.411C176.656 70.1705 175.341 70.9866 173.392 70.9866C170.627 70.9866 169.007 69.1961 169.007 66.3217V58.1003H171.126V65.9441C171.126 68.0025 172.089 69.1109 174.05 69.1109C176.108 69.1109 177.35 67.698 177.35 65.5422V58.1003H179.47ZM182.222 70.7673V58.1003H184.22V60.1709H184.269C184.683 58.7702 185.852 57.8811 187.338 57.8811C187.703 57.8811 188.02 57.942 188.19 57.9663V60.0247C188.02 59.9638 187.569 59.9029 187.058 59.9029C185.413 59.9029 184.342 61.0844 184.342 62.8748V70.7673H182.222ZM193.854 69.184C195.852 69.184 197.386 67.7833 197.386 65.9563V64.921L194 65.1281C192.295 65.2377 191.321 65.9928 191.321 67.1865C191.321 68.3923 192.332 69.184 193.854 69.184ZM193.379 70.9866C190.858 70.9866 189.165 69.4641 189.165 67.1865C189.165 65.0184 190.833 63.6543 193.757 63.4838L197.386 63.2767V62.2171C197.386 60.6702 196.363 59.7446 194.609 59.7446C192.977 59.7446 191.954 60.5119 191.686 61.7542H189.64C189.786 59.5619 191.662 57.8811 194.658 57.8811C197.63 57.8811 199.505 59.4888 199.505 62.01V70.7673H197.496V68.5871H197.447C196.692 70.0365 195.084 70.9866 193.379 70.9866ZM202.197 70.7673V58.1003H204.195V60.1221H204.243C204.95 58.758 206.302 57.8811 208.263 57.8811C211.04 57.8811 212.648 59.6715 212.648 62.5459V70.7673H210.528V62.9235C210.528 60.8773 209.566 59.7568 207.617 59.7568C205.62 59.7568 204.317 61.1696 204.317 63.3133V70.7673H202.197ZM225.875 62.2536H223.804C223.5 60.8773 222.428 59.7446 220.564 59.7446C218.372 59.7446 216.886 61.5594 216.886 64.4338C216.886 67.3813 218.396 69.1231 220.589 69.1231C222.318 69.1231 223.451 68.2096 223.816 66.6871H225.899C225.57 69.2083 223.451 70.9866 220.577 70.9866C217.069 70.9866 214.73 68.5141 214.73 64.4338C214.73 60.4388 217.057 57.8811 220.552 57.8811C223.719 57.8811 225.607 59.976 225.875 62.2536ZM232.927 59.7202C230.942 59.7202 229.553 61.2427 229.419 63.3498H236.301C236.252 61.2305 234.924 59.7202 232.927 59.7202ZM236.252 67.1377H238.335C237.969 69.3545 235.826 70.9866 233.061 70.9866C229.431 70.9866 227.227 68.4653 227.227 64.4825C227.227 60.5484 229.468 57.8811 232.964 57.8811C236.386 57.8811 238.493 60.3657 238.493 64.2024V65.0063H229.407V65.1281C229.407 67.5519 230.832 69.1474 233.11 69.1474C234.717 69.1474 235.899 68.3314 236.252 67.1377Z" fill="white"/>
</svg>
