<svg width="137" height="52" viewBox="0 0 137 52" fill="none" xmlns="http://www.w3.org/2000/svg">
<g filter="url(#filter0_b_2_2560)">
<path d="M-1.36677e-08 25.5735C-6.11922e-09 11.4478 11.4512 -0.00341796 25.5769 -0.00341796L110.731 -0.00341791C124.857 -0.0034179 136.308 11.4478 136.308 25.5735C136.308 39.6992 124.857 51.1504 110.731 51.1504L25.5769 51.1504C11.4512 51.1504 -2.12161e-08 39.6992 -1.36677e-08 25.5735Z" fill="#262626" fill-opacity="0.1"/>
<path d="M0.5 25.5735C0.5 11.7239 11.7273 0.496582 25.5769 0.496582L110.731 0.496582C124.58 0.496582 135.808 11.7239 135.808 25.5735C135.808 39.4231 124.58 50.6504 110.731 50.6504L25.5769 50.6504C11.7273 50.6504 0.5 39.4231 0.5 25.5735Z" stroke="white" stroke-opacity="0.1"/>
<path d="M33.1521 33.0735L31.3131 33.0735L31.3131 19.9863L26.6647 19.9863L26.6647 18.3313L37.8005 18.3313L37.8005 19.9863L33.1521 19.9863L33.1521 33.0735ZM37.116 33.0735L37.116 22.4485L38.7915 22.4485L38.7915 24.1853L38.8324 24.1853C39.1797 23.0104 40.1605 22.2646 41.4069 22.2646C41.7134 22.2646 41.979 22.3157 42.122 22.3361L42.122 24.0627C41.979 24.0116 41.601 23.9605 41.1719 23.9605C39.7927 23.9605 38.8937 24.9515 38.8937 26.4533L38.8937 33.0735L37.116 33.0735ZM43.6647 33.0735L43.6647 22.4485L45.4423 22.4485L45.4423 33.0735L43.6647 33.0735ZM44.5535 20.5585C43.9405 20.5585 43.4399 20.0579 43.4399 19.4449C43.4399 18.8217 43.9405 18.3313 44.5535 18.3313C45.1767 18.3313 45.6671 18.8217 45.6671 19.4449C45.6671 20.0579 45.1767 20.5585 44.5535 20.5585ZM53.0024 22.2646C55.7098 22.2646 57.5487 24.4305 57.5487 27.761C57.5487 31.0915 55.72 33.2574 53.0433 33.2574C51.5211 33.2574 50.2951 32.5116 49.6617 31.3469L49.6208 31.3469L49.6208 36.6186L47.8432 36.6186L47.8432 22.4485L49.5289 22.4485L49.5289 24.2466L49.5697 24.2466C50.2236 23.0513 51.4598 22.2646 53.0024 22.2646ZM52.6551 31.6943C54.5451 31.6943 55.7302 30.172 55.7302 27.761C55.7302 25.3601 54.5451 23.8277 52.6551 23.8277C50.8366 23.8277 49.6106 25.401 49.6106 27.761C49.6106 30.1312 50.8366 31.6943 52.6551 31.6943ZM63.7296 33.0735L63.7296 22.4485L65.5072 22.4485L65.5072 33.0735L63.7296 33.0735ZM64.6184 20.5585C64.0054 20.5585 63.5048 20.0579 63.5048 19.4449C63.5048 18.8217 64.0054 18.3313 64.6184 18.3313C65.2416 18.3313 65.732 18.8217 65.732 19.4449C65.732 20.0579 65.2416 20.5585 64.6184 20.5585ZM71.9333 33.2574C69.226 33.2574 67.387 31.0915 67.387 27.761C67.387 24.4305 69.2158 22.2646 71.8924 22.2646C73.4147 22.2646 74.6406 23.0104 75.2741 24.175L75.3149 24.175L75.3149 18.3313L77.0926 18.3313L77.0926 33.0735L75.3967 33.0735L75.3967 31.2754L75.366 31.2754C74.6815 32.5014 73.4658 33.2574 71.9333 33.2574ZM72.2705 23.8277C70.3906 23.8277 69.2056 25.3601 69.2056 27.761C69.2056 30.172 70.3906 31.6943 72.2705 31.6943C74.0992 31.6943 75.3251 30.1414 75.3251 27.761C75.3251 25.3908 74.0992 23.8277 72.2705 23.8277ZM83.7536 23.8073C82.0884 23.8073 80.9237 25.0843 80.8113 26.8517L86.5836 26.8517C86.5427 25.0741 85.4291 23.8073 83.7536 23.8073ZM86.5427 30.029L88.2897 30.029C87.9832 31.8884 86.1851 33.2574 83.866 33.2574C80.8215 33.2574 78.9724 31.1426 78.9724 27.8019C78.9724 24.502 80.8522 22.2646 83.7843 22.2646C86.6551 22.2646 88.4225 24.3487 88.4225 27.5669L88.4225 28.2412L80.8011 28.2412L80.8011 28.3433C80.8011 30.3764 81.9964 31.7147 83.9069 31.7147C85.2554 31.7147 86.2464 31.0302 86.5427 30.029ZM93.7248 31.7454C95.4003 31.7454 96.6875 30.5705 96.6875 29.038L96.6875 28.1696L93.8474 28.3433C92.4171 28.4353 91.5998 29.0687 91.5998 30.0699C91.5998 31.0813 92.4477 31.7454 93.7248 31.7454ZM93.3263 33.2574C91.2116 33.2574 89.7915 31.9803 89.7915 30.0699C89.7915 28.2514 91.1911 27.1071 93.6431 26.9641L96.6875 26.7904L96.6875 25.9016C96.6875 24.6041 95.8293 23.8277 94.3582 23.8277C92.9892 23.8277 92.131 24.4713 91.9063 25.5134L90.1899 25.5134C90.3125 23.6744 91.8858 22.2646 94.3991 22.2646C96.8918 22.2646 98.4652 23.6131 98.4652 25.7279L98.4652 33.0735L96.7795 33.0735L96.7795 31.2448L96.7386 31.2448C96.1052 32.4605 94.7566 33.2574 93.3263 33.2574ZM100.539 25.3806C100.539 23.5621 102.143 22.2646 104.442 22.2646C106.771 22.2646 108.324 23.6336 108.395 25.5134L106.7 25.5134C106.567 24.3998 105.749 23.7153 104.442 23.7153C103.144 23.7153 102.286 24.3589 102.286 25.2886C102.286 26.0242 102.828 26.5248 104.013 26.8109L105.698 27.2195C107.844 27.7406 108.62 28.5783 108.62 30.1005C108.62 31.9497 106.873 33.2574 104.503 33.2574C102.01 33.2574 100.457 32.0008 100.253 30.0086L102.031 30.0086C102.245 31.2243 103.063 31.8067 104.503 31.8067C105.944 31.8067 106.832 31.1937 106.832 30.2333C106.832 29.4671 106.413 29.0278 105.198 28.7315L103.512 28.3229C101.51 27.8427 100.539 26.913 100.539 25.3806Z" fill="white"/>
</g>
<defs>
<filter id="filter0_b_2_2560" x="-26.1538" y="-26.1573" width="188.615" height="103.462" filterUnits="userSpaceOnUse" color-interpolation-filters="sRGB">
<feFlood flood-opacity="0" result="BackgroundImageFix"/>
<feGaussianBlur in="BackgroundImageFix" stdDeviation="13.0769"/>
<feComposite in2="SourceAlpha" operator="in" result="effect1_backgroundBlur_2_2560"/>
<feBlend mode="normal" in="SourceGraphic" in2="effect1_backgroundBlur_2_2560" result="shape"/>
</filter>
</defs>
</svg>
